<mxfile host="app.diagrams.net" agent="Mozilla/5.0 (Windows NT 10.0; Win64; x64; rv:134.0) Gecko/20100101 Firefox/134.0" version="26.0.6">
  <diagram name="Page-1" id="DC6qslWilzULUfpt4yTk">
    <mxGraphModel dx="1449" dy="1767" grid="0" gridSize="10" guides="1" tooltips="1" connect="1" arrows="1" fold="1" page="0" pageScale="1" pageWidth="850" pageHeight="1100" math="0" shadow="0">
      <root>
        <mxCell id="0" />
        <mxCell id="1" parent="0" />
        <mxCell id="7l3S--z3tG0F8ubOrJJj-9" value="Main" style="swimlane;fontStyle=0;childLayout=stackLayout;horizontal=1;startSize=26;fillColor=none;horizontalStack=0;resizeParent=1;resizeParentMax=0;resizeLast=0;collapsible=1;marginBottom=0;whiteSpace=wrap;html=1;" vertex="1" parent="1">
          <mxGeometry x="-132" y="277" width="140" height="78" as="geometry" />
        </mxCell>
        <mxCell id="7l3S--z3tG0F8ubOrJJj-10" value="create()" style="text;strokeColor=none;fillColor=none;align=left;verticalAlign=top;spacingLeft=4;spacingRight=4;overflow=hidden;rotatable=0;points=[[0,0.5],[1,0.5]];portConstraint=eastwest;whiteSpace=wrap;html=1;" vertex="1" parent="7l3S--z3tG0F8ubOrJJj-9">
          <mxGeometry y="26" width="140" height="26" as="geometry" />
        </mxCell>
        <mxCell id="7l3S--z3tG0F8ubOrJJj-11" value="render()" style="text;strokeColor=none;fillColor=none;align=left;verticalAlign=top;spacingLeft=4;spacingRight=4;overflow=hidden;rotatable=0;points=[[0,0.5],[1,0.5]];portConstraint=eastwest;whiteSpace=wrap;html=1;" vertex="1" parent="7l3S--z3tG0F8ubOrJJj-9">
          <mxGeometry y="52" width="140" height="26" as="geometry" />
        </mxCell>
        <mxCell id="7l3S--z3tG0F8ubOrJJj-39" style="edgeStyle=none;curved=1;rounded=0;orthogonalLoop=1;jettySize=auto;html=1;fontSize=12;startSize=8;endSize=8;entryX=0.682;entryY=-0.002;entryDx=0;entryDy=0;entryPerimeter=0;" edge="1" parent="1" source="7l3S--z3tG0F8ubOrJJj-17" target="7l3S--z3tG0F8ubOrJJj-31">
          <mxGeometry relative="1" as="geometry">
            <mxPoint x="75.58823529411757" y="434.41176470588243" as="targetPoint" />
          </mxGeometry>
        </mxCell>
        <mxCell id="7l3S--z3tG0F8ubOrJJj-40" value="for logging" style="edgeLabel;html=1;align=center;verticalAlign=middle;resizable=0;points=[];fontSize=12;" vertex="1" connectable="0" parent="7l3S--z3tG0F8ubOrJJj-39">
          <mxGeometry x="-0.0921" y="1" relative="1" as="geometry">
            <mxPoint as="offset" />
          </mxGeometry>
        </mxCell>
        <mxCell id="7l3S--z3tG0F8ubOrJJj-17" value="Classname" style="swimlane;fontStyle=1;align=center;verticalAlign=top;childLayout=stackLayout;horizontal=1;startSize=26;horizontalStack=0;resizeParent=1;resizeParentMax=0;resizeLast=0;collapsible=1;marginBottom=0;whiteSpace=wrap;html=1;" vertex="1" parent="1">
          <mxGeometry x="30" y="277" width="160" height="60" as="geometry" />
        </mxCell>
        <mxCell id="7l3S--z3tG0F8ubOrJJj-19" value="" style="line;strokeWidth=1;fillColor=none;align=left;verticalAlign=middle;spacingTop=-1;spacingLeft=3;spacingRight=3;rotatable=0;labelPosition=right;points=[];portConstraint=eastwest;strokeColor=inherit;" vertex="1" parent="7l3S--z3tG0F8ubOrJJj-17">
          <mxGeometry y="26" width="160" height="8" as="geometry" />
        </mxCell>
        <mxCell id="7l3S--z3tG0F8ubOrJJj-20" value="+ method(type): type" style="text;strokeColor=none;fillColor=none;align=left;verticalAlign=top;spacingLeft=4;spacingRight=4;overflow=hidden;rotatable=0;points=[[0,0.5],[1,0.5]];portConstraint=eastwest;whiteSpace=wrap;html=1;" vertex="1" parent="7l3S--z3tG0F8ubOrJJj-17">
          <mxGeometry y="34" width="160" height="26" as="geometry" />
        </mxCell>
        <mxCell id="7l3S--z3tG0F8ubOrJJj-21" value="CustomException(Exception)" style="swimlane;fontStyle=1;align=center;verticalAlign=top;childLayout=stackLayout;horizontal=1;startSize=26;horizontalStack=0;resizeParent=1;resizeParentMax=0;resizeLast=0;collapsible=1;marginBottom=0;whiteSpace=wrap;html=1;" vertex="1" parent="1">
          <mxGeometry x="235" y="277" width="189" height="60" as="geometry" />
        </mxCell>
        <mxCell id="7l3S--z3tG0F8ubOrJJj-22" value="&quot;Exception&quot;" style="text;strokeColor=none;fillColor=none;align=left;verticalAlign=top;spacingLeft=4;spacingRight=4;overflow=hidden;rotatable=0;points=[[0,0.5],[1,0.5]];portConstraint=eastwest;whiteSpace=wrap;html=1;" vertex="1" parent="7l3S--z3tG0F8ubOrJJj-21">
          <mxGeometry y="26" width="189" height="26" as="geometry" />
        </mxCell>
        <mxCell id="7l3S--z3tG0F8ubOrJJj-23" value="" style="line;strokeWidth=1;fillColor=none;align=left;verticalAlign=middle;spacingTop=-1;spacingLeft=3;spacingRight=3;rotatable=0;labelPosition=right;points=[];portConstraint=eastwest;strokeColor=inherit;" vertex="1" parent="7l3S--z3tG0F8ubOrJJj-21">
          <mxGeometry y="52" width="189" height="8" as="geometry" />
        </mxCell>
        <mxCell id="7l3S--z3tG0F8ubOrJJj-25" value="Constants" style="swimlane;fontStyle=1;align=center;verticalAlign=top;childLayout=stackLayout;horizontal=1;startSize=26;horizontalStack=0;resizeParent=1;resizeParentMax=0;resizeLast=0;collapsible=1;marginBottom=0;whiteSpace=wrap;html=1;" vertex="1" parent="1">
          <mxGeometry x="438" y="269" width="160" height="86" as="geometry" />
        </mxCell>
        <mxCell id="7l3S--z3tG0F8ubOrJJj-26" value="+ int: gravity" style="text;strokeColor=none;fillColor=none;align=left;verticalAlign=top;spacingLeft=4;spacingRight=4;overflow=hidden;rotatable=0;points=[[0,0.5],[1,0.5]];portConstraint=eastwest;whiteSpace=wrap;html=1;" vertex="1" parent="7l3S--z3tG0F8ubOrJJj-25">
          <mxGeometry y="26" width="160" height="26" as="geometry" />
        </mxCell>
        <mxCell id="7l3S--z3tG0F8ubOrJJj-30" value="+ int&amp;nbsp; speed" style="text;strokeColor=none;fillColor=none;align=left;verticalAlign=top;spacingLeft=4;spacingRight=4;overflow=hidden;rotatable=0;points=[[0,0.5],[1,0.5]];portConstraint=eastwest;whiteSpace=wrap;html=1;" vertex="1" parent="7l3S--z3tG0F8ubOrJJj-25">
          <mxGeometry y="52" width="160" height="26" as="geometry" />
        </mxCell>
        <mxCell id="7l3S--z3tG0F8ubOrJJj-27" value="" style="line;strokeWidth=1;fillColor=none;align=left;verticalAlign=middle;spacingTop=-1;spacingLeft=3;spacingRight=3;rotatable=0;labelPosition=right;points=[];portConstraint=eastwest;strokeColor=inherit;" vertex="1" parent="7l3S--z3tG0F8ubOrJJj-25">
          <mxGeometry y="78" width="160" height="8" as="geometry" />
        </mxCell>
        <mxCell id="7l3S--z3tG0F8ubOrJJj-46" value="" style="edgeStyle=none;curved=1;rounded=0;orthogonalLoop=1;jettySize=auto;html=1;fontSize=12;startSize=8;endSize=8;entryX=0.75;entryY=0;entryDx=0;entryDy=0;" edge="1" parent="1" source="7l3S--z3tG0F8ubOrJJj-31" target="7l3S--z3tG0F8ubOrJJj-48">
          <mxGeometry relative="1" as="geometry">
            <mxPoint x="-170.66483516483527" y="617" as="targetPoint" />
          </mxGeometry>
        </mxCell>
        <mxCell id="7l3S--z3tG0F8ubOrJJj-52" style="edgeStyle=none;curved=1;rounded=0;orthogonalLoop=1;jettySize=auto;html=1;fontSize=12;startSize=8;endSize=8;entryX=0.379;entryY=-0.01;entryDx=0;entryDy=0;entryPerimeter=0;" edge="1" parent="1" source="7l3S--z3tG0F8ubOrJJj-31" target="7l3S--z3tG0F8ubOrJJj-57">
          <mxGeometry relative="1" as="geometry">
            <mxPoint x="65" y="618.9999999999998" as="targetPoint" />
          </mxGeometry>
        </mxCell>
        <mxCell id="7l3S--z3tG0F8ubOrJJj-31" value="GameManager" style="swimlane;fontStyle=1;align=center;verticalAlign=top;childLayout=stackLayout;horizontal=1;startSize=26;horizontalStack=0;resizeParent=1;resizeParentMax=0;resizeLast=0;collapsible=1;marginBottom=0;whiteSpace=wrap;html=1;" vertex="1" parent="1">
          <mxGeometry x="-37" y="444" width="160" height="86" as="geometry" />
        </mxCell>
        <mxCell id="7l3S--z3tG0F8ubOrJJj-33" value="" style="line;strokeWidth=1;fillColor=none;align=left;verticalAlign=middle;spacingTop=-1;spacingLeft=3;spacingRight=3;rotatable=0;labelPosition=right;points=[];portConstraint=eastwest;strokeColor=inherit;" vertex="1" parent="7l3S--z3tG0F8ubOrJJj-31">
          <mxGeometry y="26" width="160" height="8" as="geometry" />
        </mxCell>
        <mxCell id="7l3S--z3tG0F8ubOrJJj-34" value="getInstance()" style="text;strokeColor=none;fillColor=none;align=left;verticalAlign=top;spacingLeft=4;spacingRight=4;overflow=hidden;rotatable=0;points=[[0,0.5],[1,0.5]];portConstraint=eastwest;whiteSpace=wrap;html=1;" vertex="1" parent="7l3S--z3tG0F8ubOrJJj-31">
          <mxGeometry y="34" width="160" height="26" as="geometry" />
        </mxCell>
        <mxCell id="7l3S--z3tG0F8ubOrJJj-35" value="changeScreen()" style="text;strokeColor=none;fillColor=none;align=left;verticalAlign=top;spacingLeft=4;spacingRight=4;overflow=hidden;rotatable=0;points=[[0,0.5],[1,0.5]];portConstraint=eastwest;whiteSpace=wrap;html=1;" vertex="1" parent="7l3S--z3tG0F8ubOrJJj-31">
          <mxGeometry y="60" width="160" height="26" as="geometry" />
        </mxCell>
        <mxCell id="7l3S--z3tG0F8ubOrJJj-37" style="edgeStyle=none;curved=1;rounded=0;orthogonalLoop=1;jettySize=auto;html=1;entryX=0.201;entryY=0.021;entryDx=0;entryDy=0;entryPerimeter=0;fontSize=12;startSize=8;endSize=8;" edge="1" parent="1" source="7l3S--z3tG0F8ubOrJJj-9" target="7l3S--z3tG0F8ubOrJJj-31">
          <mxGeometry relative="1" as="geometry" />
        </mxCell>
        <mxCell id="7l3S--z3tG0F8ubOrJJj-38" value="manages" style="edgeLabel;html=1;align=center;verticalAlign=middle;resizable=0;points=[];fontSize=12;" vertex="1" connectable="0" parent="7l3S--z3tG0F8ubOrJJj-37">
          <mxGeometry x="-0.1378" y="-4" relative="1" as="geometry">
            <mxPoint as="offset" />
          </mxGeometry>
        </mxCell>
        <mxCell id="7l3S--z3tG0F8ubOrJJj-48" value="MainMenuScreen" style="swimlane;fontStyle=1;align=center;verticalAlign=top;childLayout=stackLayout;horizontal=1;startSize=26;horizontalStack=0;resizeParent=1;resizeParentMax=0;resizeLast=0;collapsible=1;marginBottom=0;whiteSpace=wrap;html=1;" vertex="1" parent="1">
          <mxGeometry x="-268" y="618" width="160" height="86" as="geometry" />
        </mxCell>
        <mxCell id="7l3S--z3tG0F8ubOrJJj-49" value="&quot;Screen&quot;" style="text;strokeColor=none;fillColor=none;align=left;verticalAlign=top;spacingLeft=4;spacingRight=4;overflow=hidden;rotatable=0;points=[[0,0.5],[1,0.5]];portConstraint=eastwest;whiteSpace=wrap;html=1;" vertex="1" parent="7l3S--z3tG0F8ubOrJJj-48">
          <mxGeometry y="26" width="160" height="26" as="geometry" />
        </mxCell>
        <mxCell id="7l3S--z3tG0F8ubOrJJj-50" value="" style="line;strokeWidth=1;fillColor=none;align=left;verticalAlign=middle;spacingTop=-1;spacingLeft=3;spacingRight=3;rotatable=0;labelPosition=right;points=[];portConstraint=eastwest;strokeColor=inherit;" vertex="1" parent="7l3S--z3tG0F8ubOrJJj-48">
          <mxGeometry y="52" width="160" height="8" as="geometry" />
        </mxCell>
        <mxCell id="7l3S--z3tG0F8ubOrJJj-51" value="renderer(delta)" style="text;strokeColor=none;fillColor=none;align=left;verticalAlign=top;spacingLeft=4;spacingRight=4;overflow=hidden;rotatable=0;points=[[0,0.5],[1,0.5]];portConstraint=eastwest;whiteSpace=wrap;html=1;" vertex="1" parent="7l3S--z3tG0F8ubOrJJj-48">
          <mxGeometry y="60" width="160" height="26" as="geometry" />
        </mxCell>
        <mxCell id="7l3S--z3tG0F8ubOrJJj-57" value="GameScreen " style="swimlane;fontStyle=1;align=center;verticalAlign=top;childLayout=stackLayout;horizontal=1;startSize=26;horizontalStack=0;resizeParent=1;resizeParentMax=0;resizeLast=0;collapsible=1;marginBottom=0;whiteSpace=wrap;html=1;" vertex="1" parent="1">
          <mxGeometry x="-18" y="618" width="160" height="86" as="geometry" />
        </mxCell>
        <mxCell id="7l3S--z3tG0F8ubOrJJj-58" value="&quot;Screen&quot;" style="text;strokeColor=none;fillColor=none;align=left;verticalAlign=top;spacingLeft=4;spacingRight=4;overflow=hidden;rotatable=0;points=[[0,0.5],[1,0.5]];portConstraint=eastwest;whiteSpace=wrap;html=1;" vertex="1" parent="7l3S--z3tG0F8ubOrJJj-57">
          <mxGeometry y="26" width="160" height="26" as="geometry" />
        </mxCell>
        <mxCell id="7l3S--z3tG0F8ubOrJJj-59" value="" style="line;strokeWidth=1;fillColor=none;align=left;verticalAlign=middle;spacingTop=-1;spacingLeft=3;spacingRight=3;rotatable=0;labelPosition=right;points=[];portConstraint=eastwest;strokeColor=inherit;" vertex="1" parent="7l3S--z3tG0F8ubOrJJj-57">
          <mxGeometry y="52" width="160" height="8" as="geometry" />
        </mxCell>
        <mxCell id="7l3S--z3tG0F8ubOrJJj-60" value="render(delta)" style="text;strokeColor=none;fillColor=none;align=left;verticalAlign=top;spacingLeft=4;spacingRight=4;overflow=hidden;rotatable=0;points=[[0,0.5],[1,0.5]];portConstraint=eastwest;whiteSpace=wrap;html=1;" vertex="1" parent="7l3S--z3tG0F8ubOrJJj-57">
          <mxGeometry y="60" width="160" height="26" as="geometry" />
        </mxCell>
        <mxCell id="7l3S--z3tG0F8ubOrJJj-61" value="PauseScreen" style="swimlane;fontStyle=1;align=center;verticalAlign=top;childLayout=stackLayout;horizontal=1;startSize=26;horizontalStack=0;resizeParent=1;resizeParentMax=0;resizeLast=0;collapsible=1;marginBottom=0;whiteSpace=wrap;html=1;" vertex="1" parent="1">
          <mxGeometry x="220" y="618" width="160" height="86" as="geometry" />
        </mxCell>
        <mxCell id="7l3S--z3tG0F8ubOrJJj-62" value="&quot;Screen&quot;" style="text;strokeColor=none;fillColor=none;align=left;verticalAlign=top;spacingLeft=4;spacingRight=4;overflow=hidden;rotatable=0;points=[[0,0.5],[1,0.5]];portConstraint=eastwest;whiteSpace=wrap;html=1;" vertex="1" parent="7l3S--z3tG0F8ubOrJJj-61">
          <mxGeometry y="26" width="160" height="26" as="geometry" />
        </mxCell>
        <mxCell id="7l3S--z3tG0F8ubOrJJj-63" value="" style="line;strokeWidth=1;fillColor=none;align=left;verticalAlign=middle;spacingTop=-1;spacingLeft=3;spacingRight=3;rotatable=0;labelPosition=right;points=[];portConstraint=eastwest;strokeColor=inherit;" vertex="1" parent="7l3S--z3tG0F8ubOrJJj-61">
          <mxGeometry y="52" width="160" height="8" as="geometry" />
        </mxCell>
        <mxCell id="7l3S--z3tG0F8ubOrJJj-64" value="render(delta)" style="text;strokeColor=none;fillColor=none;align=left;verticalAlign=top;spacingLeft=4;spacingRight=4;overflow=hidden;rotatable=0;points=[[0,0.5],[1,0.5]];portConstraint=eastwest;whiteSpace=wrap;html=1;" vertex="1" parent="7l3S--z3tG0F8ubOrJJj-61">
          <mxGeometry y="60" width="160" height="26" as="geometry" />
        </mxCell>
        <mxCell id="7l3S--z3tG0F8ubOrJJj-65" style="edgeStyle=none;curved=1;rounded=0;orthogonalLoop=1;jettySize=auto;html=1;entryX=0.414;entryY=-0.014;entryDx=0;entryDy=0;entryPerimeter=0;fontSize=12;startSize=8;endSize=8;" edge="1" parent="1" source="7l3S--z3tG0F8ubOrJJj-31" target="7l3S--z3tG0F8ubOrJJj-61">
          <mxGeometry relative="1" as="geometry" />
        </mxCell>
        <mxCell id="7l3S--z3tG0F8ubOrJJj-70" style="edgeStyle=none;curved=1;rounded=0;orthogonalLoop=1;jettySize=auto;html=1;fontSize=12;startSize=8;endSize=8;entryX=0.158;entryY=0.97;entryDx=0;entryDy=0;entryPerimeter=0;exitX=0.635;exitY=0.029;exitDx=0;exitDy=0;exitPerimeter=0;" edge="1" parent="1" source="7l3S--z3tG0F8ubOrJJj-71" target="7l3S--z3tG0F8ubOrJJj-69">
          <mxGeometry relative="1" as="geometry">
            <mxPoint x="-201" y="905.3333333333333" as="targetPoint" />
            <mxPoint x="-138" y="919" as="sourcePoint" />
          </mxGeometry>
        </mxCell>
        <mxCell id="7l3S--z3tG0F8ubOrJJj-66" value="BaseSprite" style="swimlane;fontStyle=1;align=center;verticalAlign=top;childLayout=stackLayout;horizontal=1;startSize=26;horizontalStack=0;resizeParent=1;resizeParentMax=0;resizeLast=0;collapsible=1;marginBottom=0;whiteSpace=wrap;html=1;" vertex="1" parent="1">
          <mxGeometry x="-197" y="735" width="160" height="60" as="geometry" />
        </mxCell>
        <mxCell id="7l3S--z3tG0F8ubOrJJj-68" value="" style="line;strokeWidth=1;fillColor=none;align=left;verticalAlign=middle;spacingTop=-1;spacingLeft=3;spacingRight=3;rotatable=0;labelPosition=right;points=[];portConstraint=eastwest;strokeColor=inherit;" vertex="1" parent="7l3S--z3tG0F8ubOrJJj-66">
          <mxGeometry y="26" width="160" height="8" as="geometry" />
        </mxCell>
        <mxCell id="7l3S--z3tG0F8ubOrJJj-69" value="draw(spriteBatch)" style="text;strokeColor=none;fillColor=none;align=left;verticalAlign=top;spacingLeft=4;spacingRight=4;overflow=hidden;rotatable=0;points=[[0,0.5],[1,0.5]];portConstraint=eastwest;whiteSpace=wrap;html=1;" vertex="1" parent="7l3S--z3tG0F8ubOrJJj-66">
          <mxGeometry y="34" width="160" height="26" as="geometry" />
        </mxCell>
        <mxCell id="7l3S--z3tG0F8ubOrJJj-71" value="Enemy" style="swimlane;fontStyle=1;align=center;verticalAlign=top;childLayout=stackLayout;horizontal=1;startSize=26;horizontalStack=0;resizeParent=1;resizeParentMax=0;resizeLast=0;collapsible=1;marginBottom=0;whiteSpace=wrap;html=1;" vertex="1" parent="1">
          <mxGeometry x="-257" y="920" width="160" height="86" as="geometry" />
        </mxCell>
        <mxCell id="7l3S--z3tG0F8ubOrJJj-72" value="&quot;BaseSprite&quot;" style="text;strokeColor=none;fillColor=none;align=left;verticalAlign=top;spacingLeft=4;spacingRight=4;overflow=hidden;rotatable=0;points=[[0,0.5],[1,0.5]];portConstraint=eastwest;whiteSpace=wrap;html=1;" vertex="1" parent="7l3S--z3tG0F8ubOrJJj-71">
          <mxGeometry y="26" width="160" height="26" as="geometry" />
        </mxCell>
        <mxCell id="7l3S--z3tG0F8ubOrJJj-73" value="" style="line;strokeWidth=1;fillColor=none;align=left;verticalAlign=middle;spacingTop=-1;spacingLeft=3;spacingRight=3;rotatable=0;labelPosition=right;points=[];portConstraint=eastwest;strokeColor=inherit;" vertex="1" parent="7l3S--z3tG0F8ubOrJJj-71">
          <mxGeometry y="52" width="160" height="8" as="geometry" />
        </mxCell>
        <mxCell id="7l3S--z3tG0F8ubOrJJj-74" value="AI()" style="text;strokeColor=none;fillColor=none;align=left;verticalAlign=top;spacingLeft=4;spacingRight=4;overflow=hidden;rotatable=0;points=[[0,0.5],[1,0.5]];portConstraint=eastwest;whiteSpace=wrap;html=1;" vertex="1" parent="7l3S--z3tG0F8ubOrJJj-71">
          <mxGeometry y="60" width="160" height="26" as="geometry" />
        </mxCell>
        <mxCell id="7l3S--z3tG0F8ubOrJJj-75" value="Player" style="swimlane;fontStyle=1;align=center;verticalAlign=top;childLayout=stackLayout;horizontal=1;startSize=26;horizontalStack=0;resizeParent=1;resizeParentMax=0;resizeLast=0;collapsible=1;marginBottom=0;whiteSpace=wrap;html=1;" vertex="1" parent="1">
          <mxGeometry x="-27" y="920" width="160" height="112" as="geometry" />
        </mxCell>
        <mxCell id="7l3S--z3tG0F8ubOrJJj-76" value="&quot;BaseSprite, InputHandler&quot;" style="text;strokeColor=none;fillColor=none;align=left;verticalAlign=top;spacingLeft=4;spacingRight=4;overflow=hidden;rotatable=0;points=[[0,0.5],[1,0.5]];portConstraint=eastwest;whiteSpace=wrap;html=1;" vertex="1" parent="7l3S--z3tG0F8ubOrJJj-75">
          <mxGeometry y="26" width="160" height="26" as="geometry" />
        </mxCell>
        <mxCell id="7l3S--z3tG0F8ubOrJJj-77" value="" style="line;strokeWidth=1;fillColor=none;align=left;verticalAlign=middle;spacingTop=-1;spacingLeft=3;spacingRight=3;rotatable=0;labelPosition=right;points=[];portConstraint=eastwest;strokeColor=inherit;" vertex="1" parent="7l3S--z3tG0F8ubOrJJj-75">
          <mxGeometry y="52" width="160" height="8" as="geometry" />
        </mxCell>
        <mxCell id="7l3S--z3tG0F8ubOrJJj-78" value="update(delta)" style="text;strokeColor=none;fillColor=none;align=left;verticalAlign=top;spacingLeft=4;spacingRight=4;overflow=hidden;rotatable=0;points=[[0,0.5],[1,0.5]];portConstraint=eastwest;whiteSpace=wrap;html=1;" vertex="1" parent="7l3S--z3tG0F8ubOrJJj-75">
          <mxGeometry y="60" width="160" height="26" as="geometry" />
        </mxCell>
        <mxCell id="7l3S--z3tG0F8ubOrJJj-79" value="draw(spriteBatch)" style="text;strokeColor=none;fillColor=none;align=left;verticalAlign=top;spacingLeft=4;spacingRight=4;overflow=hidden;rotatable=0;points=[[0,0.5],[1,0.5]];portConstraint=eastwest;whiteSpace=wrap;html=1;" vertex="1" parent="7l3S--z3tG0F8ubOrJJj-75">
          <mxGeometry y="86" width="160" height="26" as="geometry" />
        </mxCell>
        <mxCell id="7l3S--z3tG0F8ubOrJJj-80" style="edgeStyle=none;curved=1;rounded=0;orthogonalLoop=1;jettySize=auto;html=1;entryX=0.769;entryY=0.927;entryDx=0;entryDy=0;entryPerimeter=0;fontSize=12;startSize=8;endSize=8;" edge="1" parent="1" source="7l3S--z3tG0F8ubOrJJj-75" target="7l3S--z3tG0F8ubOrJJj-69">
          <mxGeometry relative="1" as="geometry" />
        </mxCell>
        <mxCell id="7l3S--z3tG0F8ubOrJJj-82" value="&lt;div&gt;&amp;lt;&amp;lt;interface&amp;gt;&amp;gt;&lt;/div&gt;&lt;div&gt;InputHandler&lt;br&gt;&lt;/div&gt;" style="swimlane;fontStyle=1;align=center;verticalAlign=top;childLayout=stackLayout;horizontal=1;startSize=37;horizontalStack=0;resizeParent=1;resizeParentMax=0;resizeLast=0;collapsible=1;marginBottom=0;whiteSpace=wrap;html=1;" vertex="1" parent="1">
          <mxGeometry x="-24" y="1121" width="198" height="175" as="geometry" />
        </mxCell>
        <mxCell id="7l3S--z3tG0F8ubOrJJj-84" value="" style="line;strokeWidth=1;fillColor=none;align=left;verticalAlign=middle;spacingTop=-1;spacingLeft=3;spacingRight=3;rotatable=0;labelPosition=right;points=[];portConstraint=eastwest;strokeColor=inherit;" vertex="1" parent="7l3S--z3tG0F8ubOrJJj-82">
          <mxGeometry y="37" width="198" height="8" as="geometry" />
        </mxCell>
        <mxCell id="7l3S--z3tG0F8ubOrJJj-85" value="processInput()" style="text;strokeColor=none;fillColor=none;align=left;verticalAlign=top;spacingLeft=4;spacingRight=4;overflow=hidden;rotatable=0;points=[[0,0.5],[1,0.5]];portConstraint=eastwest;whiteSpace=wrap;html=1;" vertex="1" parent="7l3S--z3tG0F8ubOrJJj-82">
          <mxGeometry y="45" width="198" height="26" as="geometry" />
        </mxCell>
        <mxCell id="7l3S--z3tG0F8ubOrJJj-110" value="keydown(int keycode):boolean" style="text;strokeColor=none;fillColor=none;align=left;verticalAlign=top;spacingLeft=4;spacingRight=4;overflow=hidden;rotatable=0;points=[[0,0.5],[1,0.5]];portConstraint=eastwest;whiteSpace=wrap;html=1;" vertex="1" parent="7l3S--z3tG0F8ubOrJJj-82">
          <mxGeometry y="71" width="198" height="26" as="geometry" />
        </mxCell>
        <mxCell id="7l3S--z3tG0F8ubOrJJj-107" value="keyup(int keycode):boolean" style="text;strokeColor=none;fillColor=none;align=left;verticalAlign=top;spacingLeft=4;spacingRight=4;overflow=hidden;rotatable=0;points=[[0,0.5],[1,0.5]];portConstraint=eastwest;whiteSpace=wrap;html=1;" vertex="1" parent="7l3S--z3tG0F8ubOrJJj-82">
          <mxGeometry y="97" width="198" height="26" as="geometry" />
        </mxCell>
        <mxCell id="7l3S--z3tG0F8ubOrJJj-109" value="keyleft(int keycode):boolean&lt;div&gt;&lt;br&gt;&lt;/div&gt;" style="text;strokeColor=none;fillColor=none;align=left;verticalAlign=top;spacingLeft=4;spacingRight=4;overflow=hidden;rotatable=0;points=[[0,0.5],[1,0.5]];portConstraint=eastwest;whiteSpace=wrap;html=1;" vertex="1" parent="7l3S--z3tG0F8ubOrJJj-82">
          <mxGeometry y="123" width="198" height="26" as="geometry" />
        </mxCell>
        <mxCell id="7l3S--z3tG0F8ubOrJJj-108" value="keyright(int keycode):boolean&lt;div&gt;&lt;br&gt;&lt;/div&gt;" style="text;strokeColor=none;fillColor=none;align=left;verticalAlign=top;spacingLeft=4;spacingRight=4;overflow=hidden;rotatable=0;points=[[0,0.5],[1,0.5]];portConstraint=eastwest;whiteSpace=wrap;html=1;" vertex="1" parent="7l3S--z3tG0F8ubOrJJj-82">
          <mxGeometry y="149" width="198" height="26" as="geometry" />
        </mxCell>
        <mxCell id="7l3S--z3tG0F8ubOrJJj-86" style="edgeStyle=none;curved=1;rounded=0;orthogonalLoop=1;jettySize=auto;html=1;entryX=0.375;entryY=0.047;entryDx=0;entryDy=0;entryPerimeter=0;fontSize=12;startSize=8;endSize=8;" edge="1" parent="1" source="7l3S--z3tG0F8ubOrJJj-75" target="7l3S--z3tG0F8ubOrJJj-82">
          <mxGeometry relative="1" as="geometry" />
        </mxCell>
        <mxCell id="7l3S--z3tG0F8ubOrJJj-94" value="implements" style="edgeLabel;html=1;align=center;verticalAlign=middle;resizable=0;points=[];fontSize=12;" vertex="1" connectable="0" parent="7l3S--z3tG0F8ubOrJJj-86">
          <mxGeometry x="0.1169" y="1" relative="1" as="geometry">
            <mxPoint as="offset" />
          </mxGeometry>
        </mxCell>
        <mxCell id="7l3S--z3tG0F8ubOrJJj-100" style="edgeStyle=none;curved=1;rounded=0;orthogonalLoop=1;jettySize=auto;html=1;fontSize=12;startSize=8;endSize=8;" edge="1" parent="1" source="7l3S--z3tG0F8ubOrJJj-87" target="7l3S--z3tG0F8ubOrJJj-57">
          <mxGeometry relative="1" as="geometry" />
        </mxCell>
        <mxCell id="7l3S--z3tG0F8ubOrJJj-101" value="provides map" style="edgeLabel;html=1;align=center;verticalAlign=middle;resizable=0;points=[];fontSize=12;" vertex="1" connectable="0" parent="7l3S--z3tG0F8ubOrJJj-100">
          <mxGeometry x="-0.7605" y="-1" relative="1" as="geometry">
            <mxPoint as="offset" />
          </mxGeometry>
        </mxCell>
        <mxCell id="7l3S--z3tG0F8ubOrJJj-87" value="Maploader" style="swimlane;fontStyle=1;align=center;verticalAlign=top;childLayout=stackLayout;horizontal=1;startSize=26;horizontalStack=0;resizeParent=1;resizeParentMax=0;resizeLast=0;collapsible=1;marginBottom=0;whiteSpace=wrap;html=1;" vertex="1" parent="1">
          <mxGeometry x="208" y="1112" width="192" height="112" as="geometry" />
        </mxCell>
        <mxCell id="7l3S--z3tG0F8ubOrJJj-89" value="" style="line;strokeWidth=1;fillColor=none;align=left;verticalAlign=middle;spacingTop=-1;spacingLeft=3;spacingRight=3;rotatable=0;labelPosition=right;points=[];portConstraint=eastwest;strokeColor=inherit;" vertex="1" parent="7l3S--z3tG0F8ubOrJJj-87">
          <mxGeometry y="26" width="192" height="8" as="geometry" />
        </mxCell>
        <mxCell id="7l3S--z3tG0F8ubOrJJj-90" value="loadMap()" style="text;strokeColor=none;fillColor=none;align=left;verticalAlign=top;spacingLeft=4;spacingRight=4;overflow=hidden;rotatable=0;points=[[0,0.5],[1,0.5]];portConstraint=eastwest;whiteSpace=wrap;html=1;" vertex="1" parent="7l3S--z3tG0F8ubOrJJj-87">
          <mxGeometry y="34" width="192" height="26" as="geometry" />
        </mxCell>
        <mxCell id="7l3S--z3tG0F8ubOrJJj-91" value="findSpawnPoint()" style="text;strokeColor=none;fillColor=none;align=left;verticalAlign=top;spacingLeft=4;spacingRight=4;overflow=hidden;rotatable=0;points=[[0,0.5],[1,0.5]];portConstraint=eastwest;whiteSpace=wrap;html=1;" vertex="1" parent="7l3S--z3tG0F8ubOrJJj-87">
          <mxGeometry y="60" width="192" height="26" as="geometry" />
        </mxCell>
        <mxCell id="7l3S--z3tG0F8ubOrJJj-112" value="getHeight(int cellsx, int cellsy)" style="text;strokeColor=none;fillColor=none;align=left;verticalAlign=top;spacingLeft=4;spacingRight=4;overflow=hidden;rotatable=0;points=[[0,0.5],[1,0.5]];portConstraint=eastwest;whiteSpace=wrap;html=1;" vertex="1" parent="7l3S--z3tG0F8ubOrJJj-87">
          <mxGeometry y="86" width="192" height="26" as="geometry" />
        </mxCell>
        <mxCell id="7l3S--z3tG0F8ubOrJJj-92" style="edgeStyle=none;curved=1;rounded=0;orthogonalLoop=1;jettySize=auto;html=1;entryX=0.161;entryY=0.045;entryDx=0;entryDy=0;entryPerimeter=0;fontSize=12;startSize=8;endSize=8;" edge="1" parent="1" source="7l3S--z3tG0F8ubOrJJj-75" target="7l3S--z3tG0F8ubOrJJj-87">
          <mxGeometry relative="1" as="geometry" />
        </mxCell>
        <mxCell id="7l3S--z3tG0F8ubOrJJj-93" value="uses" style="edgeLabel;html=1;align=center;verticalAlign=middle;resizable=0;points=[];fontSize=12;" vertex="1" connectable="0" parent="7l3S--z3tG0F8ubOrJJj-92">
          <mxGeometry x="-0.3806" y="-3" relative="1" as="geometry">
            <mxPoint as="offset" />
          </mxGeometry>
        </mxCell>
        <mxCell id="7l3S--z3tG0F8ubOrJJj-95" style="edgeStyle=none;curved=1;rounded=0;orthogonalLoop=1;jettySize=auto;html=1;entryX=0.875;entryY=0;entryDx=0;entryDy=0;entryPerimeter=0;fontSize=12;startSize=8;endSize=8;exitX=0.136;exitY=0.933;exitDx=0;exitDy=0;exitPerimeter=0;" edge="1" parent="1" source="7l3S--z3tG0F8ubOrJJj-60" target="7l3S--z3tG0F8ubOrJJj-71">
          <mxGeometry relative="1" as="geometry">
            <mxPoint x="10.960000000000036" y="733.9260000000002" as="sourcePoint" />
          </mxGeometry>
        </mxCell>
        <mxCell id="7l3S--z3tG0F8ubOrJJj-97" value="contains" style="edgeLabel;html=1;align=center;verticalAlign=middle;resizable=0;points=[];fontSize=12;" vertex="1" connectable="0" parent="7l3S--z3tG0F8ubOrJJj-95">
          <mxGeometry x="0.5274" y="-2" relative="1" as="geometry">
            <mxPoint as="offset" />
          </mxGeometry>
        </mxCell>
        <mxCell id="7l3S--z3tG0F8ubOrJJj-98" style="edgeStyle=none;curved=1;rounded=0;orthogonalLoop=1;jettySize=auto;html=1;entryX=0.396;entryY=0.024;entryDx=0;entryDy=0;entryPerimeter=0;fontSize=12;startSize=8;endSize=8;" edge="1" parent="1" source="7l3S--z3tG0F8ubOrJJj-57" target="7l3S--z3tG0F8ubOrJJj-75">
          <mxGeometry relative="1" as="geometry" />
        </mxCell>
        <mxCell id="7l3S--z3tG0F8ubOrJJj-99" value="contains" style="edgeLabel;html=1;align=center;verticalAlign=middle;resizable=0;points=[];fontSize=12;" vertex="1" connectable="0" parent="7l3S--z3tG0F8ubOrJJj-98">
          <mxGeometry x="0.623" y="-1" relative="1" as="geometry">
            <mxPoint as="offset" />
          </mxGeometry>
        </mxCell>
        <mxCell id="7l3S--z3tG0F8ubOrJJj-113" style="edgeStyle=none;curved=1;rounded=0;orthogonalLoop=1;jettySize=auto;html=1;fontSize=12;startSize=8;endSize=8;" edge="1" parent="1" source="7l3S--z3tG0F8ubOrJJj-102" target="7l3S--z3tG0F8ubOrJJj-66">
          <mxGeometry relative="1" as="geometry" />
        </mxCell>
        <mxCell id="7l3S--z3tG0F8ubOrJJj-102" value="NPC" style="swimlane;fontStyle=1;align=center;verticalAlign=top;childLayout=stackLayout;horizontal=1;startSize=26;horizontalStack=0;resizeParent=1;resizeParentMax=0;resizeLast=0;collapsible=1;marginBottom=0;whiteSpace=wrap;html=1;" vertex="1" parent="1">
          <mxGeometry x="235" y="940" width="160" height="86" as="geometry" />
        </mxCell>
        <mxCell id="7l3S--z3tG0F8ubOrJJj-103" value="&quot;BaseSprite&quot;" style="text;strokeColor=none;fillColor=none;align=left;verticalAlign=top;spacingLeft=4;spacingRight=4;overflow=hidden;rotatable=0;points=[[0,0.5],[1,0.5]];portConstraint=eastwest;whiteSpace=wrap;html=1;" vertex="1" parent="7l3S--z3tG0F8ubOrJJj-102">
          <mxGeometry y="26" width="160" height="26" as="geometry" />
        </mxCell>
        <mxCell id="7l3S--z3tG0F8ubOrJJj-104" value="" style="line;strokeWidth=1;fillColor=none;align=left;verticalAlign=middle;spacingTop=-1;spacingLeft=3;spacingRight=3;rotatable=0;labelPosition=right;points=[];portConstraint=eastwest;strokeColor=inherit;" vertex="1" parent="7l3S--z3tG0F8ubOrJJj-102">
          <mxGeometry y="52" width="160" height="8" as="geometry" />
        </mxCell>
        <mxCell id="7l3S--z3tG0F8ubOrJJj-105" value="+ method(type): type" style="text;strokeColor=none;fillColor=none;align=left;verticalAlign=top;spacingLeft=4;spacingRight=4;overflow=hidden;rotatable=0;points=[[0,0.5],[1,0.5]];portConstraint=eastwest;whiteSpace=wrap;html=1;" vertex="1" parent="7l3S--z3tG0F8ubOrJJj-102">
          <mxGeometry y="60" width="160" height="26" as="geometry" />
        </mxCell>
        <mxCell id="7l3S--z3tG0F8ubOrJJj-115" style="edgeStyle=none;curved=1;rounded=0;orthogonalLoop=1;jettySize=auto;html=1;entryX=0.148;entryY=0.041;entryDx=0;entryDy=0;entryPerimeter=0;fontSize=12;startSize=8;endSize=8;" edge="1" parent="1" source="7l3S--z3tG0F8ubOrJJj-57" target="7l3S--z3tG0F8ubOrJJj-102">
          <mxGeometry relative="1" as="geometry" />
        </mxCell>
        <mxCell id="7l3S--z3tG0F8ubOrJJj-117" value="contains" style="edgeLabel;html=1;align=center;verticalAlign=middle;resizable=0;points=[];fontSize=12;" vertex="1" connectable="0" parent="7l3S--z3tG0F8ubOrJJj-115">
          <mxGeometry x="0.5141" y="-1" relative="1" as="geometry">
            <mxPoint as="offset" />
          </mxGeometry>
        </mxCell>
      </root>
    </mxGraphModel>
  </diagram>
</mxfile>
